<?xml version="1.0" encoding="UTF-8"?>
<svg id="Layer_2" data-name="Layer 2" xmlns="http://www.w3.org/2000/svg" viewBox="0 0 117.12 29.77">
  <defs>
    <style>
      .cls-1 {
        fill: #1591dc;
      }
    </style>
  </defs>
  <g id="Layer_1-2" data-name="Layer 1">
    <g>
      <path class="cls-1" d="M20.28,20.35l1.76,5.37c-1.41.2-2.72.3-3.92.3-5.73-.37-9.16-2.57-10.32-6.59-.06-.21-.11-.41-.17-.62l-1.14.36c-1.85.52-1.39,3.28-1.14,5.8.07.74.25,1.59.51,2.51l-5.17,2.3c-.34-1.39-.57-2.68-.69-3.87-.2-5.74,1.65-9.39,5.54-10.93l1.56-.57c.06-2.02.59-3.89,1.56-5.63,1.73-3.08,4.02-4.79,6.88-5.09.41-.05.81-.07,1.21-.07,2.36,0,4.49.77,6.4,2.32l-2.87,4.22c-.9-.96-2.07-1.44-3.52-1.44-2.08.16-3.33,1.49-3.77,3.98,1.19-.29,2.45-.44,3.77-.44,1.02,0,2.1.1,3.22.27l-.44,4.92c-.61-.05-1.22-.07-1.82-.07-1.45,0-2.9.14-4.33.4.35,1.9,1.78,2.83,4.32,2.83.75,0,1.61-.07,2.56-.25Z"/>
      <path class="cls-1" d="M42.9,23.62l-5.15-2.32c.76-2.66,1.14-4.72,1.14-6.2,0-.63-.07-1.15-.2-1.56-.21-.64-.47-.97-.78-.97-.36,0-.9.63-1.62,1.89-.72,1.26-1.79,1.89-3.2,1.89s-2.47-.7-3.07-2.11c-.28-.65-.53-.98-.74-.98-.25,0-.46.44-.62,1.31-.06.31-.09.71-.09,1.19,0,2.05.53,5.64,1.59,10.76l-5.59,1.97c-.66-4.28-.99-7.94-.99-10.98,0-2.46.35-5.01,1.05-7.66s1.95-4.28,3.76-4.88c.24-.08.47-.12.7-.12,1.55,0,3.03,1.74,4.42,5.21,1.85-2.91,3.54-4.36,5.06-4.36s2.72.98,3.62,2.93,1.46,4.14,1.66,6.57c.04.48.07.97.07,1.47,0,2.08-.34,4.39-1.01,6.94Z"/>
      <path class="cls-1" d="M60.2,5.51c.39,1.17.58,2.3.58,3.38,0,1.83-.57,3.52-1.7,5.09,3.06,1.6,4.6,3.67,4.6,6.23-.15,2.94-1.74,5.05-4.78,6.32-2.81,1.18-5.47,1.78-7.98,1.78-3.11-.11-4.71-4.04-4.8-11.8,0-8.65.89-13.74,2.68-15.28.94-.81,2.24-1.22,3.91-1.22,1.12,0,2.42.33,3.91.99,1.48.66,2.68,2.17,3.58,4.52ZM50.89,12.6c3.13-.19,4.69-1.4,4.69-3.62,0-.06-.02-.7-.07-1.9-.04-1.21-.66-1.96-1.86-2.26-.21-.05-.42-.08-.61-.08-.87,0-1.45.57-1.75,1.7-.3,1.09-.45,2.58-.45,4.48,0,.53.01,1.09.04,1.68ZM51.07,17.1c.05,2.42.3,4.01.76,4.76.25.42.76.62,1.52.62.63,0,1.42-.13,2.37-.4,1.53-.42,2.29-1.1,2.29-2.01,0-.38-.13-.8-.38-1.27-.69-1.24-2.16-1.85-4.41-1.85-.64,0-1.36.05-2.15.16Z"/>
      <path class="cls-1" d="M65.61,14.4c.06-2.02.58-3.9,1.56-5.63,1.73-3.09,4.02-4.79,6.88-5.1.41-.04.81-.07,1.21-.07,2.36,0,4.5.77,6.41,2.32l-2.88,4.21c-.9-.95-2.08-1.43-3.52-1.43-2.08.16-3.33,1.49-3.76,3.99,1.18-.29,2.44-.44,3.76-.44,1.02,0,2.1.09,3.22.27l-.44,4.91c-.61-.04-1.21-.07-1.81-.07-1.45,0-2.89.13-4.33.4.34,1.89,1.78,2.84,4.32,2.84.75,0,1.6-.08,2.56-.25l1.76,5.37c-1.41.2-2.72.3-3.92.3-5.72-.38-9.16-2.58-10.32-6.6-.06-.2-.12-.41-.17-.62l-1.14.36-.94-4.19,1.56-.57Z"/>
      <path class="cls-1" d="M90.21,25.65c-4.13-.11-6.89-1.29-8.28-3.54-1.01-1.62-1.51-3.3-1.51-5.05,0-.67.17-1.8.52-3.39.35-1.59,1.72-3.45,4.13-5.58,1.94-1.73,4.23-2.6,6.88-2.6.62,0,1.25.05,1.91.15l-1.17,5.21c-.48-.09-.93-.13-1.35-.13-1.62,0-2.87.63-3.75,1.89-1.02,1.47-1.54,2.95-1.54,4.44.11,1.87,1.21,2.86,3.3,2.97.13,0,.26.01.4.01,1.83,0,2.81-.78,2.95-2.33l-2.97.62.95-5.29,7.41-1.25c.05.82.08,1.6.08,2.35,0,7.31-2.65,11.15-7.96,11.51Z"/>
      <path class="cls-1" d="M101.06,14.4c.06-2.02.58-3.9,1.56-5.63,1.73-3.09,4.02-4.79,6.88-5.1.41-.04.81-.07,1.21-.07,2.36,0,4.5.77,6.41,2.32l-2.87,4.21c-.9-.95-2.08-1.43-3.52-1.43-2.08.16-3.33,1.49-3.76,3.99,1.18-.29,2.44-.44,3.76-.44,1.03,0,2.1.09,3.22.27l-.44,4.91c-.61-.04-1.22-.07-1.81-.07-1.45,0-2.89.13-4.33.4.34,1.89,1.78,2.84,4.32,2.84.75,0,1.6-.08,2.56-.25l1.76,5.37c-1.41.2-2.72.3-3.92.3-5.72-.38-9.16-2.58-10.32-6.6-.06-.2-.12-.41-.17-.62l-1.14.36-.94-4.19,1.56-.57Z"/>
    </g>
  </g>
</svg>